<svg width="127" height="43" viewBox="0 0 127 43" fill="none" xmlns="http://www.w3.org/2000/svg">
<path fill-rule="evenodd" clip-rule="evenodd" d="M29.136 13.5935C25.1998 9.83348 18.9608 9.97625 15.2007 13.9124C11.4406 17.8486 11.5834 24.0876 15.5196 27.8477C19.4558 31.6078 25.6948 31.465 29.4549 27.5288C33.2149 23.5927 33.0722 17.3536 29.136 13.5935ZM28.3496 14.417C24.8682 11.0913 19.3499 11.2176 16.0242 14.699C12.6985 18.1805 12.8248 23.6988 16.3063 27.0244C19.7877 30.3501 25.306 30.2239 28.6317 26.7424C31.9574 23.261 31.8311 17.7427 28.3496 14.417Z" fill="white"/>
<path d="M29.7355 8.20049C29.6343 8.15082 29.6403 8.00461 29.7452 7.96338L37.1107 5.06859C37.2135 5.02818 37.3166 5.1266 37.2809 5.23116L34.726 12.7214C34.6897 12.8281 34.5439 12.8408 34.4896 12.7419L32.85 9.75578C32.8372 9.73239 32.8174 9.71353 32.7935 9.70178L29.7355 8.20049Z" fill="white"/>
<path d="M32.3316 8.9341L33.5507 10.0987L10.5157 33.6494L9.85923 33.0223L32.3316 8.9341Z" fill="white"/>
<path d="M10.1314 29.7333C10.1574 29.7062 10.1938 29.6916 10.2313 29.6933L12.247 29.7877C12.3563 29.7928 12.4105 29.9225 12.3375 30.0039L9.78046 32.8532C9.75339 32.8834 9.71377 32.8991 9.67338 32.8958L7.56706 32.7237C7.4583 32.7149 7.40847 32.5838 7.48384 32.5049L8.02935 31.9338C8.05602 31.9059 8.09374 31.8913 8.13226 31.8941L8.62431 31.9288C8.64099 31.9299 8.65598 31.9186 8.65941 31.9023C8.66336 31.8834 8.65063 31.8651 8.63158 31.8623L8.41174 31.8296C8.30772 31.8141 8.2644 31.6878 8.33704 31.6117L8.37629 31.5707C8.40296 31.5427 8.44068 31.5282 8.47919 31.5309L9.27097 31.5867C9.28765 31.5879 9.30264 31.5766 9.30607 31.5602C9.31002 31.5414 9.29729 31.5231 9.27824 31.5203L8.77827 31.4459C8.67425 31.4304 8.63092 31.3041 8.70357 31.2281L8.98043 30.9382C9.0071 30.9103 9.04482 30.8957 9.08334 30.8984L10.0749 30.9684C10.0916 30.9696 10.1066 30.9582 10.11 30.9419C10.114 30.923 10.1012 30.9047 10.0822 30.9019L9.39548 30.7998C9.29145 30.7843 9.24813 30.658 9.32077 30.5819L9.64553 30.242C9.6722 30.2141 9.70992 30.1995 9.74843 30.2022L10.4403 30.251C10.457 30.2522 10.472 30.2409 10.4754 30.2245C10.4794 30.2056 10.4666 30.1874 10.4476 30.1845L10.041 30.1241C9.93695 30.1086 9.89363 29.9823 9.96627 29.9062L10.1314 29.7333Z" fill="white"/>
<path d="M13.7888 33.227C13.8147 33.1999 13.8276 33.1628 13.8241 33.1254L13.6376 31.1161C13.6275 31.0072 13.4955 30.9589 13.4176 31.0356L10.6882 33.7203C10.6593 33.7487 10.6453 33.789 10.6505 33.8292L10.9187 35.9255C10.9326 36.0337 11.0658 36.0775 11.1412 35.9986L11.6867 35.4275C11.7133 35.3996 11.7262 35.3613 11.7217 35.3229L11.6645 34.833C11.6626 34.8164 11.6732 34.8009 11.6894 34.7967C11.7081 34.7919 11.7269 34.8038 11.7306 34.8227L11.7733 35.0408C11.7935 35.144 11.9217 35.1815 11.9944 35.1054L12.0336 35.0643C12.0603 35.0364 12.0731 34.9981 12.0686 34.9597L11.9766 34.1713C11.9747 34.1547 11.9853 34.1392 12.0015 34.1351C12.0202 34.1303 12.039 34.1421 12.0427 34.161L12.1398 34.6571C12.16 34.7603 12.2882 34.7978 12.3609 34.7217L12.6377 34.4319C12.6644 34.404 12.6773 34.3656 12.6728 34.3273L12.5576 33.3399C12.5556 33.3233 12.5662 33.3078 12.5824 33.3037C12.6011 33.2988 12.6199 33.3107 12.6236 33.3296L12.757 34.011C12.7773 34.1142 12.9054 34.1517 12.9781 34.0756L13.3028 33.7357C13.3295 33.7077 13.3424 33.6694 13.3379 33.631L13.2575 32.9421C13.2555 32.9255 13.2662 32.91 13.2824 32.9059C13.301 32.901 13.3198 32.9129 13.3236 32.9318L13.4025 33.3352C13.4228 33.4384 13.5509 33.4759 13.6236 33.3999L13.7888 33.227Z" fill="white"/>
<path d="M35.8602 23.5285L35.5839 24.6626L3.60952 16.741L3.82436 15.859L35.8602 23.5285Z" fill="white"/>
<path d="M6.8088 14.4502C6.84527 14.4591 6.87611 14.4833 6.89333 14.5167L7.8195 16.3096C7.86968 16.4067 7.78451 16.5186 7.67752 16.496L3.93141 15.7062C3.89176 15.6978 3.85829 15.6714 3.84095 15.6348L2.93682 13.7246C2.89014 13.626 2.97871 13.5173 3.08474 13.5431L3.85204 13.73C3.88956 13.7392 3.92105 13.7645 3.93795 13.7993L4.15392 14.2427C4.16124 14.2578 4.17854 14.2651 4.19443 14.2599C4.21272 14.2539 4.22219 14.2337 4.21512 14.2158L4.13351 14.0091C4.09489 13.9112 4.18265 13.8106 4.28483 13.8354L4.34004 13.8489C4.37755 13.858 4.40904 13.8834 4.42594 13.9181L4.77346 14.6317C4.78078 14.6468 4.79808 14.6541 4.81397 14.6489C4.83227 14.6429 4.84174 14.6227 4.83467 14.6048L4.64907 14.1346C4.61045 14.0368 4.69821 13.9361 4.80039 13.961L5.18982 14.0559C5.22733 14.065 5.25882 14.0904 5.27573 14.1251L5.71094 15.0188C5.71827 15.0339 5.73556 15.0412 5.75146 15.036C5.76975 15.03 5.77922 15.0098 5.77215 14.9919L5.51722 14.3461C5.4786 14.2483 5.56636 14.1476 5.66854 14.1725L6.12533 14.2837C6.16284 14.2929 6.19434 14.3183 6.21124 14.353L6.51491 14.9765C6.52223 14.9916 6.53953 14.9989 6.55542 14.9937C6.57371 14.9877 6.58318 14.9675 6.57611 14.9496L6.42517 14.5673C6.38656 14.4694 6.47431 14.3687 6.57649 14.3936L6.8088 14.4502Z" fill="white"/>
<path d="M5.61184 19.3644C5.64832 19.3733 5.68685 19.3659 5.71748 19.3442L7.36438 18.1781C7.45362 18.1149 7.42941 17.9764 7.32404 17.9472L3.63434 16.9259C3.59528 16.9151 3.55341 16.9231 3.52116 16.9477L1.83989 18.2281C1.75308 18.2942 1.78175 18.4315 1.88777 18.4573L2.65508 18.6442C2.6926 18.6533 2.73223 18.6453 2.7632 18.6222L3.15892 18.3277C3.17233 18.3178 3.19106 18.3192 3.20278 18.3311C3.21626 18.3449 3.2154 18.3672 3.20088 18.3798L3.03334 18.5259C2.95407 18.595 2.98569 18.7247 3.08787 18.7496L3.14308 18.7631C3.18059 18.7722 3.22022 18.7641 3.2512 18.7411L3.88796 18.2672C3.90137 18.2572 3.9201 18.2587 3.93182 18.2706C3.9453 18.2844 3.94444 18.3066 3.92992 18.3193L3.5489 18.6514C3.46962 18.7205 3.50125 18.8503 3.60343 18.8752L3.99286 18.97C4.03037 18.9792 4.07 18.9711 4.10098 18.9481L4.89844 18.3546C4.91185 18.3446 4.93058 18.3461 4.94229 18.358C4.95578 18.3718 4.95491 18.394 4.9404 18.4067L4.41705 18.8629C4.33778 18.932 4.3694 19.0618 4.47158 19.0866L4.92837 19.1979C4.96588 19.207 5.00552 19.199 5.03649 19.1759L5.5929 18.7619C5.60632 18.7519 5.62505 18.7533 5.63676 18.7653C5.65025 18.779 5.64938 18.8013 5.63487 18.8139L5.32501 19.084C5.24573 19.1531 5.27735 19.2829 5.37953 19.3078L5.61184 19.3644Z" fill="white"/>
<path fill-rule="evenodd" clip-rule="evenodd" d="M41.7861 26.5993L41.8672 26.2664L37.9746 24.9381C37.8173 24.8845 37.727 24.7197 37.7663 24.5582C37.8056 24.3967 37.9616 24.2919 38.126 24.3166L42.1934 24.9272L42.2542 24.6776L38.3616 23.3494C38.2043 23.2957 38.1139 23.1309 38.1533 22.9695C38.1926 22.808 38.3486 22.7032 38.513 22.7279L42.5804 23.3385L42.6481 23.0604L37.6911 21.576C36.3911 21.1867 35.0421 21.7396 34.3585 22.825C34.3124 22.8056 34.2642 22.7896 34.2141 22.7774C33.7061 22.6537 33.194 22.9652 33.0703 23.4731C32.9466 23.9811 33.2581 24.4931 33.766 24.6168C33.8161 24.6291 33.8663 24.637 33.9161 24.641C34.0238 25.9193 34.9675 27.0307 36.3011 27.2829L41.3855 28.2443L41.46 27.9385L37.5673 26.6102C37.41 26.5565 37.3197 26.3917 37.359 26.2303C37.3983 26.0688 37.5543 25.964 37.7187 25.9887L41.7861 26.5993Z" fill="white"/>
<path d="M17.8106 7.53882L18.9308 7.21101L28.0577 38.8625L27.1865 39.1174L17.8106 7.53882Z" fill="white"/>
<path d="M24.4742 37.2372C24.4637 37.2012 24.4693 37.1623 24.4895 37.1307L25.5791 35.4322C25.6382 35.3402 25.7776 35.358 25.8116 35.462L27.0007 39.1011C27.0132 39.1396 27.0071 39.1818 26.984 39.2151L25.7818 40.9532C25.7198 41.043 25.5814 41.0206 25.5507 40.9159L25.3289 40.1579C25.3181 40.1209 25.3243 40.0809 25.3459 40.0489L25.622 39.6401C25.6314 39.6263 25.629 39.6076 25.6166 39.5965C25.6022 39.5836 25.58 39.5855 25.5681 39.6006L25.4298 39.7746C25.3644 39.857 25.2334 39.8313 25.2038 39.7304L25.1879 39.6759C25.177 39.6388 25.1832 39.5989 25.2049 39.5669L25.6491 38.9091C25.6585 38.8952 25.6562 38.8766 25.6437 38.8654C25.6294 38.8526 25.6072 38.8545 25.5952 38.8696L25.2808 39.2654C25.2154 39.3477 25.0843 39.3221 25.0548 39.2211L24.9422 38.8365C24.9314 38.7994 24.9376 38.7594 24.9592 38.7274L25.5156 37.9037C25.5249 37.8898 25.5226 37.8712 25.5102 37.86C25.4958 37.8472 25.4736 37.8491 25.4617 37.8641L25.0299 38.4078C24.9645 38.4902 24.8334 38.4645 24.8038 38.3636L24.6718 37.9123C24.661 37.8753 24.6672 37.8353 24.6888 37.8033L25.077 37.2286C25.0864 37.2147 25.084 37.1961 25.0716 37.1849C25.0572 37.1721 25.035 37.1739 25.0231 37.189L24.7674 37.5109C24.702 37.5933 24.5709 37.5676 24.5414 37.4667L24.4742 37.2372Z" fill="white"/>
<path d="M29.3285 35.8167C29.318 35.7807 29.2923 35.751 29.2582 35.7353L27.4249 34.8921C27.3255 34.8464 27.2177 34.9366 27.2451 35.0425L28.2054 38.7485C28.2156 38.7878 28.2435 38.82 28.2809 38.8356L30.2305 39.6514C30.3311 39.6936 30.4356 39.6001 30.405 39.4954L30.1832 38.7374C30.1723 38.7004 30.1456 38.6701 30.1101 38.6548L29.6572 38.4593C29.6419 38.4527 29.6338 38.4358 29.6382 38.4196C29.6434 38.4011 29.6631 38.3907 29.6813 38.397L29.8916 38.469C29.9911 38.5031 30.0876 38.4109 30.0581 38.3099L30.0421 38.2554C30.0313 38.2183 30.0045 38.188 29.969 38.1727L29.2403 37.8582C29.2249 37.8516 29.2168 37.8347 29.2213 37.8185C29.2265 37.8 29.2462 37.7896 29.2644 37.7959L29.7425 37.9598C29.842 37.9939 29.9386 37.9016 29.9091 37.8007L29.7965 37.416C29.7857 37.3789 29.7589 37.3486 29.7234 37.3333L28.8107 36.9394C28.7954 36.9328 28.7873 36.9159 28.7917 36.8997C28.7969 36.8812 28.8166 36.8708 28.8348 36.8771L29.4916 37.1022C29.5911 37.1363 29.6877 37.044 29.6581 36.9431L29.5261 36.4919C29.5152 36.4548 29.4884 36.4245 29.453 36.4092L28.8162 36.1344C28.8008 36.1277 28.7927 36.1108 28.7972 36.0947C28.8024 36.0761 28.8221 36.0658 28.8403 36.072L29.2291 36.2053C29.3286 36.2394 29.4252 36.1471 29.3957 36.0462L29.3285 35.8167Z" fill="white"/>
<path d="M16.43 0.928425C14.7926 1.40757 14.6274 3.68853 14.7466 5.39044L14.8227 6.47583C14.9142 7.78155 15.6982 8.97817 16.9664 9.30186C17.3559 9.40126 17.7587 9.47619 18.1309 9.49462L18.2936 10.0506C18.374 10.3255 18.6622 10.4832 18.9371 10.4027L19.6878 10.1831C19.9628 10.1026 20.1204 9.81448 20.04 9.53951L19.8476 8.88214C20.0705 8.69944 20.2881 8.48849 20.4922 8.27013C21.3859 7.3138 21.4011 5.8833 20.7743 4.73424L20.2532 3.77907C19.4362 2.28135 18.0674 0.449276 16.43 0.928425Z" fill="white"/>
<path d="M57.9703 18.2361C58.1619 18.2361 58.3884 18.2448 58.6497 18.2623C58.9111 18.2798 59.1201 18.306 59.2769 18.3409L58.9895 22.0087C58.8675 21.9738 58.6846 21.9476 58.4407 21.9301C58.2142 21.8952 58.0139 21.8777 57.8396 21.8777C57.3344 21.8777 56.8466 21.9476 56.3762 22.0873C55.9059 22.2096 55.479 22.4104 55.0958 22.6899C54.7299 22.9693 54.4338 23.3449 54.2073 23.8164C53.9982 24.2705 53.8937 24.8382 53.8937 25.5193V32.8026H50V18.4981H52.9529L53.5278 20.9084H53.7108C53.9895 20.4193 54.3379 19.974 54.7561 19.5722C55.1742 19.1705 55.6533 18.8474 56.1933 18.6029C56.7508 18.3584 57.3431 18.2361 57.9703 18.2361Z" fill="white"/>
<path d="M67.236 18.2361C68.56 18.2361 69.6924 18.4894 70.6332 18.9959C71.5913 19.5024 72.3318 20.2359 72.8544 21.1966C73.377 22.1572 73.6384 23.3361 73.6384 24.7334V26.6197H64.4398C64.4747 27.72 64.797 28.5846 65.4067 29.2134C66.0339 29.8421 66.8963 30.1565 67.9938 30.1565C68.9172 30.1565 69.7534 30.0692 70.5025 29.8945C71.2516 29.7024 72.0269 29.4142 72.8283 29.03V32.0428C72.1314 32.3921 71.391 32.6454 70.607 32.8026C69.8405 32.9772 68.9084 33.0646 67.8109 33.0646C66.3823 33.0646 65.1193 32.8026 64.0217 32.2786C62.9242 31.7372 62.0618 30.925 61.4347 29.8421C60.8075 28.7593 60.4939 27.3969 60.4939 25.7551C60.4939 24.0784 60.7726 22.6899 61.3301 21.5895C61.905 20.4717 62.6977 19.6334 63.7081 19.0745C64.7186 18.5156 65.8945 18.2361 67.236 18.2361ZM67.2621 21.0132C66.513 21.0132 65.8858 21.2577 65.3806 21.7467C64.8928 22.2358 64.6054 22.9955 64.5182 24.026H69.9799C69.9799 23.4497 69.8753 22.9344 69.6663 22.4803C69.4746 22.0262 69.1785 21.6681 68.7778 21.4062C68.3771 21.1442 67.8719 21.0132 67.2621 21.0132Z" fill="white"/>
<path d="M82.597 33.0646C81.1859 33.0646 79.9838 32.8113 78.9908 32.3048C77.9977 31.7808 77.2399 30.9774 76.7173 29.8945C76.1946 28.8116 75.9333 27.4231 75.9333 25.7289C75.9333 23.9824 76.2295 22.5589 76.8218 21.4585C77.4141 20.3582 78.2329 19.546 79.2782 19.0221C80.3409 18.4981 81.5604 18.2361 82.9367 18.2361C83.9123 18.2361 84.7572 18.3322 85.4715 18.5243C86.2032 18.7164 86.8391 18.9435 87.3792 19.2055L86.2294 22.2183C85.6196 21.9738 85.0447 21.7729 84.5046 21.6157C83.982 21.4585 83.4594 21.38 82.9367 21.38C82.2573 21.38 81.6911 21.5459 81.2381 21.8777C80.7852 22.1921 80.4454 22.6724 80.219 23.3187C80.0099 23.9474 79.9054 24.7421 79.9054 25.7027C79.9054 26.6459 80.0186 27.4319 80.2451 28.0606C80.489 28.6719 80.8374 29.1348 81.2904 29.4492C81.7433 29.7461 82.2921 29.8945 82.9367 29.8945C83.7555 29.8945 84.4785 29.7897 85.1057 29.5801C85.7328 29.3531 86.3426 29.0474 86.9349 28.6632V31.9904C86.3426 32.3747 85.7154 32.6454 85.0534 32.8026C84.4088 32.9772 83.59 33.0646 82.597 33.0646Z" fill="white"/>
<path d="M94.1127 24.1816V38.4861H90.219V24.1816H94.1127ZM92.1789 18.5751C92.7538 18.5751 93.2503 18.7148 93.6684 18.9943C94.0866 19.2563 94.2956 19.754 94.2956 20.4876C94.2956 21.2037 94.0866 21.7015 93.6684 21.9809C93.2503 22.2604 92.7538 22.4001 92.1789 22.4001C91.5866 22.4001 91.0814 22.2604 90.6633 21.9809C90.2626 21.7015 90.0622 21.2037 90.0622 20.4876C90.0622 19.754 90.2626 19.2563 90.6633 18.9943C91.0814 18.7148 91.5866 18.5751 92.1789 18.5751Z" fill="white"/>
<path d="M106.125 18.2361C107.728 18.2361 109.026 18.8649 110.019 20.1224C111.012 21.3625 111.509 23.1964 111.509 25.6241C111.509 27.2485 111.273 28.6195 110.803 29.7373C110.333 30.8377 109.688 31.6673 108.869 32.2262C108.05 32.7851 107.101 33.0646 106.021 33.0646C105.341 33.0646 104.749 32.9772 104.244 32.8026C103.756 32.6279 103.338 32.4009 102.989 32.1214C102.641 31.842 102.336 31.545 102.075 31.2307H101.866C101.935 31.5625 101.988 31.9118 102.023 32.2786C102.057 32.6279 102.075 32.9772 102.075 33.3266V39.0903H98.1811V18.4981H101.343L101.892 20.3582H102.075C102.336 19.974 102.65 19.6246 103.016 19.3103C103.381 18.9784 103.817 18.7164 104.322 18.5243C104.845 18.3322 105.446 18.2361 106.125 18.2361ZM104.871 21.3538C104.192 21.3538 103.651 21.4935 103.251 21.7729C102.85 22.0524 102.554 22.4803 102.362 23.0567C102.188 23.6156 102.092 24.3229 102.075 25.1788V25.5979C102.075 26.5236 102.162 27.3096 102.336 27.9558C102.51 28.5846 102.807 29.0649 103.225 29.3968C103.643 29.7286 104.209 29.8945 104.923 29.8945C105.516 29.8945 106.003 29.7286 106.387 29.3968C106.77 29.0649 107.057 28.5759 107.249 27.9296C107.441 27.2834 107.536 26.4974 107.536 25.5717C107.536 24.1745 107.319 23.1265 106.883 22.4279C106.465 21.7118 105.794 21.3538 104.871 21.3538Z" fill="white"/>
<path d="M120.598 18.2361C121.922 18.2361 123.054 18.4894 123.995 18.9959C124.953 19.5024 125.693 20.2359 126.216 21.1966C126.739 22.1572 127 23.3361 127 24.7334V26.6197H117.801C117.836 27.72 118.159 28.5846 118.768 29.2134C119.396 29.8421 120.258 30.1565 121.355 30.1565C122.279 30.1565 123.115 30.0692 123.864 29.8945C124.613 29.7024 125.389 29.4142 126.19 29.03V32.0428C125.493 32.3921 124.753 32.6454 123.969 32.8026C123.202 32.9772 122.27 33.0646 121.173 33.0646C119.744 33.0646 118.481 32.8026 117.383 32.2786C116.286 31.7372 115.423 30.925 114.796 29.8421C114.169 28.7593 113.856 27.3969 113.856 25.7551C113.856 24.0784 114.134 22.6899 114.692 21.5895C115.267 20.4717 116.059 19.6334 117.07 19.0745C118.08 18.5156 119.256 18.2361 120.598 18.2361ZM120.624 21.0132C119.875 21.0132 119.247 21.2577 118.742 21.7467C118.254 22.2358 117.967 22.9955 117.88 24.026H123.341C123.341 23.4497 123.237 22.9344 123.028 22.4803C122.836 22.0262 122.54 21.6681 122.139 21.4062C121.739 21.1442 121.233 21.0132 120.624 21.0132Z" fill="white"/>
<path d="M56.8335 11.8824H55.5085V7.88284H51.325V11.8824H50V3.12268H51.325V6.75414H55.5085V3.12268H56.8335V11.8824Z" fill="white"/>
<path d="M64.6368 11.8824L63.7044 9.35505H60.3183L59.3859 11.8824H58.0119L61.3366 3.08588H62.7107L66.0232 11.8824H64.6368ZM62.453 5.73586C62.4285 5.64589 62.3835 5.51094 62.3181 5.331C62.2608 5.14289 62.2036 4.95477 62.1463 4.76666C62.0891 4.57036 62.0441 4.41087 62.0114 4.28819C61.9705 4.45177 61.9214 4.6317 61.8642 4.828C61.8151 5.01611 61.766 5.19196 61.7169 5.35554C61.6679 5.51094 61.627 5.63772 61.5943 5.73586L60.7109 8.20182H63.3364L62.453 5.73586Z" fill="white"/>
<path d="M74.3939 11.8824H72.7867L68.3578 4.80346H68.3087C68.3169 4.96704 68.3251 5.14289 68.3333 5.331C68.3496 5.51912 68.3619 5.71951 68.3701 5.93216C68.3783 6.13663 68.3864 6.34929 68.3946 6.57012C68.4028 6.78277 68.4069 6.99951 68.4069 7.22034V11.8824H67.2046V3.12268H68.7995L73.2161 10.1648H73.2529C73.2447 10.0421 73.2366 9.89078 73.2284 9.71084C73.2202 9.52272 73.212 9.32234 73.2038 9.10969C73.2038 8.89703 73.1998 8.68029 73.1916 8.45946C73.1834 8.23863 73.1752 8.03006 73.167 7.83377V3.12268H74.3939V11.8824Z" fill="white"/>
<path d="M80.3854 7.17127H83.5507V11.5388C83.0844 11.6942 82.606 11.8087 82.1152 11.8824C81.6327 11.9641 81.0806 12.005 80.459 12.005C79.5675 12.005 78.8109 11.8251 78.1893 11.4652C77.5759 11.1054 77.1056 10.5901 76.7785 9.9194C76.4595 9.24873 76.3 8.4431 76.3 7.50252C76.3 6.58648 76.4799 5.79312 76.8398 5.12244C77.1997 4.45177 77.715 3.9324 78.3856 3.56435C79.0645 3.18812 79.8865 3 80.8516 3C81.3342 3 81.7963 3.04907 82.2379 3.14722C82.6796 3.23719 83.0885 3.36396 83.4648 3.52754L82.9863 4.6317C82.6837 4.49266 82.3443 4.37816 81.968 4.28819C81.6 4.19004 81.2115 4.14097 80.8025 4.14097C80.1564 4.14097 79.5961 4.28001 79.1217 4.55809C78.6555 4.828 78.2957 5.2165 78.0421 5.72359C77.7968 6.22251 77.6741 6.81958 77.6741 7.51479C77.6741 8.1691 77.7763 8.74981 77.9808 9.25691C78.1852 9.764 78.5083 10.1607 78.95 10.4469C79.3916 10.7332 79.9683 10.8763 80.6798 10.8763C80.917 10.8763 81.1256 10.8682 81.3055 10.8518C81.4855 10.8273 81.649 10.8027 81.7963 10.7782C81.9517 10.7455 82.0989 10.7169 82.2379 10.6923V8.31224H80.3854V7.17127Z" fill="white"/>
<path d="M92.4767 11.8824H91.1517V7.88284H86.9682V11.8824H85.6432V3.12268H86.9682V6.75414H91.1517V3.12268H92.4767V11.8824Z" fill="white"/>
<path d="M100.28 11.8824L99.3476 9.35505H95.9615L95.0291 11.8824H93.6551L96.9798 3.08588H98.3539L101.666 11.8824H100.28ZM98.0962 5.73586C98.0717 5.64589 98.0267 5.51094 97.9613 5.331C97.904 5.14289 97.8468 4.95477 97.7895 4.76666C97.7323 4.57036 97.6873 4.41087 97.6546 4.28819C97.6137 4.45177 97.5646 4.6317 97.5073 4.828C97.4583 5.01611 97.4092 5.19196 97.3601 5.35554C97.3111 5.51094 97.2702 5.63772 97.2374 5.73586L96.3541 8.20182H98.9796L98.0962 5.73586Z" fill="white"/>
<path d="M107.78 11.8824H102.848V3.12268H107.78V4.25138H104.173V6.75414H107.559V7.87057H104.173V10.7414H107.78V11.8824Z" fill="white"/>
</svg>
