<svg width="77" height="95" viewBox="0 0 77 95" fill="none" xmlns="http://www.w3.org/2000/svg">
<path fill-rule="evenodd" clip-rule="evenodd" d="M45.1777 13.5936C41.2415 9.83348 35.0025 9.97625 31.2424 13.9124C27.4823 17.8486 27.6251 24.0876 31.5613 27.8477C35.4975 31.6078 41.7365 31.465 45.4966 27.5288C49.2566 23.5927 49.1139 17.3536 45.1777 13.5936ZM44.3913 14.417C40.9099 11.0913 35.3916 11.2176 32.0659 14.699C28.7402 18.1805 28.8665 23.6988 32.3479 27.0245C35.8294 30.3501 41.3477 30.2239 44.6734 26.7424C47.9991 23.261 47.8728 17.7427 44.3913 14.417Z" fill="#061F33"/>
<path d="M45.7771 8.20049C45.676 8.15082 45.6819 8.00461 45.7869 7.96337L53.1524 5.06859C53.2552 5.02818 53.3582 5.1266 53.3226 5.23115L50.7677 12.7214C50.7313 12.8281 50.5856 12.8408 50.5313 12.7419L48.8917 9.75577C48.8789 9.73239 48.8591 9.71353 48.8352 9.70178L45.7771 8.20049Z" fill="#061F33"/>
<path d="M48.3733 8.93409L49.5924 10.0987L26.5574 33.6494L25.9009 33.0223L48.3733 8.93409Z" fill="#061F33"/>
<path d="M26.1731 29.7333C26.1991 29.7062 26.2355 29.6916 26.273 29.6933L28.2887 29.7877C28.3979 29.7928 28.4522 29.9225 28.3792 30.0039L25.8221 32.8532C25.7951 32.8834 25.7555 32.8991 25.7151 32.8958L23.6087 32.7237C23.5 32.7149 23.4502 32.5838 23.5255 32.5049L24.071 31.9338C24.0977 31.9059 24.1354 31.8913 24.1739 31.8941L24.666 31.9288C24.6827 31.9299 24.6977 31.9186 24.7011 31.9023C24.705 31.8834 24.6923 31.8651 24.6733 31.8623L24.4534 31.8296C24.3494 31.8141 24.3061 31.6878 24.3787 31.6117L24.418 31.5707C24.4446 31.5427 24.4824 31.5282 24.5209 31.5309L25.3127 31.5867C25.3293 31.5879 25.3443 31.5766 25.3478 31.5602C25.3517 31.5414 25.339 31.5231 25.3199 31.5203L24.82 31.4459C24.7159 31.4304 24.6726 31.3041 24.7453 31.2281L25.0221 30.9382C25.0488 30.9103 25.0865 30.8957 25.125 30.8984L26.1166 30.9684C26.1333 30.9696 26.1483 30.9582 26.1517 30.9419C26.1557 30.923 26.1429 30.9047 26.1239 30.9019L25.4372 30.7998C25.3331 30.7843 25.2898 30.658 25.3625 30.5819L25.6872 30.242C25.7139 30.2141 25.7516 30.1995 25.7901 30.2022L26.482 30.251C26.4987 30.2522 26.5137 30.2409 26.5171 30.2245C26.521 30.2056 26.5083 30.1874 26.4893 30.1845L26.0827 30.1241C25.9786 30.1086 25.9353 29.9823 26.008 29.9062L26.1731 29.7333Z" fill="#061F33"/>
<path d="M29.8304 33.227C29.8564 33.1999 29.8693 33.1628 29.8658 33.1254L29.6793 31.1161C29.6692 31.0072 29.5372 30.9589 29.4593 31.0356L26.7299 33.7203C26.701 33.7487 26.687 33.789 26.6922 33.8292L26.9604 35.9255C26.9743 36.0337 27.1075 36.0775 27.1828 35.9986L27.7284 35.4275C27.755 35.3996 27.7679 35.3613 27.7634 35.3229L27.7062 34.833C27.7043 34.8164 27.7149 34.8009 27.7311 34.7967C27.7497 34.7919 27.7686 34.8038 27.7723 34.8227L27.815 35.0408C27.8352 35.144 27.9634 35.1815 28.036 35.1054L28.0753 35.0643C28.102 35.0364 28.1148 34.9981 28.1103 34.9597L28.0183 34.1713C28.0164 34.1547 28.027 34.1392 28.0432 34.1351C28.0618 34.1303 28.0807 34.1421 28.0844 34.161L28.1815 34.6571C28.2017 34.7603 28.3299 34.7978 28.4026 34.7217L28.6794 34.4319C28.7061 34.404 28.7189 34.3656 28.7145 34.3273L28.5992 33.3399C28.5973 33.3233 28.6079 33.3078 28.6241 33.3037C28.6428 33.2988 28.6616 33.3107 28.6653 33.3296L28.7987 34.011C28.8189 34.1142 28.9471 34.1517 29.0198 34.0756L29.3445 33.7357C29.3712 33.7077 29.384 33.6694 29.3796 33.631L29.2992 32.9421C29.2972 32.9255 29.3079 32.91 29.324 32.9059C29.3427 32.901 29.3615 32.9129 29.3652 32.9318L29.4442 33.3352C29.4644 33.4384 29.5926 33.4759 29.6653 33.3999L29.8304 33.227Z" fill="#061F33"/>
<path d="M51.9019 23.5285L51.6256 24.6626L19.6512 16.741L19.866 15.859L51.9019 23.5285Z" fill="#F96F22"/>
<path d="M22.8505 14.4502C22.887 14.4591 22.9178 14.4833 22.935 14.5167L23.8612 16.3096C23.9114 16.4067 23.8262 16.5186 23.7192 16.496L19.9731 15.7062C19.9334 15.6978 19.9 15.6714 19.8826 15.6348L18.9785 13.7246C18.9318 13.626 19.0204 13.5173 19.1264 13.5431L19.8937 13.73C19.9312 13.7392 19.9627 13.7645 19.9796 13.7993L20.1956 14.2427C20.2029 14.2578 20.2202 14.2651 20.2361 14.2599C20.2544 14.2539 20.2639 14.2337 20.2568 14.2158L20.1752 14.0091C20.1366 13.9112 20.2243 13.8106 20.3265 13.8354L20.3817 13.8489C20.4192 13.858 20.4507 13.8834 20.4676 13.9181L20.8151 14.6317C20.8225 14.6468 20.8398 14.6541 20.8557 14.6489C20.874 14.6429 20.8834 14.6227 20.8764 14.6048L20.6908 14.1346C20.6521 14.0368 20.7399 13.9361 20.8421 13.961L21.2315 14.0559C21.269 14.065 21.3005 14.0904 21.3174 14.1251L21.7526 15.0188C21.76 15.0339 21.7773 15.0412 21.7931 15.036C21.8114 15.03 21.8209 15.0098 21.8138 14.9919L21.5589 14.3461C21.5203 14.2483 21.608 14.1476 21.7102 14.1725L22.167 14.2837C22.2045 14.2929 22.236 14.3183 22.2529 14.353L22.5566 14.9765C22.5639 14.9916 22.5812 14.9989 22.5971 14.9937C22.6154 14.9877 22.6249 14.9675 22.6178 14.9496L22.4669 14.5673C22.4282 14.4694 22.516 14.3687 22.6182 14.3936L22.8505 14.4502Z" fill="#F96F22"/>
<path d="M21.6535 19.3644C21.69 19.3733 21.7285 19.3659 21.7592 19.3442L23.4061 18.1781C23.4953 18.1149 23.4711 17.9764 23.3657 17.9472L19.676 16.9259C19.637 16.9151 19.5951 16.9231 19.5628 16.9477L17.8816 18.2281C17.7948 18.2942 17.8234 18.4315 17.9295 18.4573L18.6968 18.6442C18.7343 18.6533 18.7739 18.6453 18.8049 18.6222L19.2006 18.3277C19.214 18.3178 19.2327 18.3192 19.2445 18.3311C19.258 18.3449 19.2571 18.3672 19.2426 18.3798L19.075 18.5259C18.9958 18.595 19.0274 18.7247 19.1296 18.7496L19.1848 18.7631C19.2223 18.7722 19.2619 18.7641 19.2929 18.7411L19.9296 18.2672C19.9431 18.2572 19.9618 18.2587 19.9735 18.2706C19.987 18.2844 19.9861 18.3066 19.9716 18.3193L19.5906 18.6514C19.5113 18.7205 19.5429 18.8503 19.6451 18.8752L20.0345 18.97C20.0721 18.9792 20.1117 18.9711 20.1427 18.9481L20.9401 18.3546C20.9535 18.3446 20.9723 18.3461 20.984 18.358C20.9975 18.3718 20.9966 18.394 20.9821 18.4067L20.4587 18.8629C20.3795 18.932 20.4111 19.0618 20.5133 19.0866L20.9701 19.1979C21.0076 19.207 21.0472 19.199 21.0782 19.1759L21.6346 18.7619C21.648 18.7519 21.6667 18.7533 21.6784 18.7653C21.6919 18.779 21.6911 18.8013 21.6766 18.8139L21.3667 19.084C21.2874 19.1531 21.319 19.2829 21.4212 19.3078L21.6535 19.3644Z" fill="#F96F22"/>
<path fill-rule="evenodd" clip-rule="evenodd" d="M57.8278 26.5993L57.9089 26.2664L54.0163 24.9381C53.859 24.8845 53.7686 24.7197 53.808 24.5582C53.8473 24.3967 54.0033 24.2919 54.1677 24.3166L58.2351 24.9272L58.2959 24.6776L54.4033 23.3494C54.246 23.2957 54.1556 23.1309 54.195 22.9695C54.2343 22.808 54.3903 22.7032 54.5547 22.7279L58.6221 23.3385L58.6898 23.0604L53.7328 21.576C52.4328 21.1867 51.0838 21.7396 50.4002 22.825C50.3541 22.8056 50.3059 22.7896 50.2557 22.7774C49.7478 22.6537 49.2357 22.9652 49.112 23.4731C48.9883 23.9811 49.2998 24.4931 49.8077 24.6168C49.8578 24.6291 49.908 24.637 49.9578 24.641C50.0655 25.9193 51.0092 27.0307 52.3428 27.2829L57.4272 28.2443L57.5016 27.9385L53.609 26.6102C53.4517 26.5565 53.3613 26.3917 53.4007 26.2303C53.44 26.0688 53.596 25.964 53.7604 25.9887L57.8278 26.5993Z" fill="#F96F22"/>
<path d="M33.8523 7.53882L34.9725 7.21101L44.0994 38.8625L43.2282 39.1174L33.8523 7.53882Z" fill="#F96F22"/>
<path d="M40.5159 37.2372C40.5054 37.2012 40.511 37.1623 40.5312 37.1308L41.6208 35.4322C41.6799 35.3402 41.8193 35.358 41.8533 35.462L43.0423 39.1011C43.0549 39.1396 43.0488 39.1818 43.0257 39.2151L41.8235 40.9532C41.7615 41.043 41.623 41.0206 41.5924 40.9159L41.3706 40.1579C41.3598 40.1209 41.366 40.0809 41.3876 40.0489L41.6637 39.6401C41.673 39.6263 41.6707 39.6076 41.6583 39.5965C41.6439 39.5836 41.6217 39.5855 41.6098 39.6006L41.4715 39.7746C41.4061 39.857 41.275 39.8313 41.2455 39.7304L41.2295 39.6759C41.2187 39.6388 41.2249 39.5989 41.2465 39.5669L41.6908 38.9091C41.7002 38.8952 41.6978 38.8766 41.6854 38.8654C41.671 38.8526 41.6488 38.8545 41.6369 38.8696L41.3225 39.2654C41.2571 39.3477 41.126 39.3221 41.0965 39.2211L40.9839 38.8364C40.9731 38.7994 40.9793 38.7594 41.0009 38.7274L41.5573 37.9037C41.5666 37.8898 41.5643 37.8712 41.5519 37.86C41.5375 37.8472 41.5153 37.8491 41.5033 37.8641L41.0715 38.4078C41.0061 38.4902 40.8751 38.4645 40.8455 38.3636L40.7135 37.9123C40.7026 37.8753 40.7089 37.8353 40.7305 37.8033L41.1187 37.2286C41.128 37.2147 41.1257 37.1961 41.1133 37.1849C41.0989 37.1721 41.0767 37.1739 41.0648 37.189L40.8091 37.5109C40.7437 37.5933 40.6126 37.5676 40.5831 37.4667L40.5159 37.2372Z" fill="#F96F22"/>
<path d="M45.3702 35.8167C45.3597 35.7807 45.334 35.751 45.2999 35.7353L43.4666 34.8921C43.3672 34.8464 43.2594 34.9366 43.2868 35.0425L44.2471 38.7485C44.2573 38.7878 44.2852 38.82 44.3226 38.8356L46.2721 39.6514C46.3728 39.6936 46.4773 39.6001 46.4467 39.4954L46.2249 38.7374C46.214 38.7004 46.1872 38.6701 46.1518 38.6548L45.6989 38.4593C45.6835 38.4527 45.6754 38.4358 45.6799 38.4196C45.6851 38.4011 45.7048 38.3907 45.723 38.397L45.9333 38.469C46.0327 38.5031 46.1293 38.4109 46.0998 38.3099L46.0838 38.2554C46.073 38.2183 46.0462 38.188 46.0107 38.1727L45.282 37.8582C45.2666 37.8516 45.2585 37.8347 45.263 37.8185C45.2681 37.8 45.2879 37.7896 45.3061 37.7958L45.7842 37.9598C45.8837 37.9939 45.9803 37.9016 45.9508 37.8006L45.8382 37.416C45.8273 37.3789 45.8005 37.3486 45.7651 37.3333L44.8524 36.9394C44.8371 36.9328 44.8289 36.9159 44.8334 36.8997C44.8386 36.8812 44.8583 36.8708 44.8765 36.8771L45.5333 37.1022C45.6328 37.1363 45.7293 37.044 45.6998 36.9431L45.5678 36.4919C45.5569 36.4548 45.5301 36.4245 45.4947 36.4092L44.8579 36.1344C44.8425 36.1277 44.8344 36.1108 44.8389 36.0947C44.844 36.0761 44.8638 36.0658 44.882 36.072L45.2708 36.2053C45.3703 36.2394 45.4669 36.1471 45.4373 36.0462L45.3702 35.8167Z" fill="#F96F22"/>
<path d="M32.4717 0.928425C30.8343 1.40757 30.6691 3.68853 30.7883 5.39044L30.8644 6.47583C30.9559 7.78155 31.7398 8.97817 33.0081 9.30186C33.3976 9.40126 33.8004 9.47619 34.1726 9.49462L34.3353 10.0506C34.4157 10.3255 34.7039 10.4832 34.9788 10.4027L35.7295 10.1831C36.0044 10.1026 36.1621 9.81448 36.0817 9.53951L35.8893 8.88214C36.1122 8.69944 36.3298 8.48849 36.5339 8.27013C37.4276 7.3138 37.4428 5.8833 36.816 4.73424L36.2949 3.77907C35.4778 2.28135 34.1091 0.449276 32.4717 0.928425Z" fill="#F96F22"/>
<path d="M7.9703 73.7288C8.16194 73.7288 8.38842 73.7375 8.64974 73.755C8.91106 73.7724 9.12012 73.7986 9.27691 73.8336L8.98946 77.5014C8.86751 77.4664 8.68458 77.4402 8.44068 77.4228C8.2142 77.3878 8.01386 77.3704 7.83964 77.3704C7.33442 77.3704 6.84662 77.4402 6.37624 77.58C5.90586 77.7022 5.47904 77.9031 5.09577 78.1825C4.72992 78.462 4.43375 78.8375 4.20728 79.3091C3.99822 79.7632 3.89369 80.3308 3.89369 81.012V88.2952H0V73.9907H2.95293L3.52784 76.401H3.71076C3.98951 75.912 4.33794 75.4666 4.75605 75.0649C5.17416 74.6632 5.65325 74.3401 6.19332 74.0955C6.7508 73.851 7.34313 73.7288 7.9703 73.7288Z" fill="#F96F22"/>
<path d="M17.236 73.7288C18.56 73.7288 19.6924 73.982 20.6332 74.4885C21.5913 74.995 22.3318 75.7286 22.8544 76.6892C23.377 77.6498 23.6384 78.8288 23.6384 80.226V82.1123H14.4398C14.4747 83.2127 14.797 84.0772 15.4067 84.706C16.0339 85.3348 16.8963 85.6492 17.9938 85.6492C18.9172 85.6492 19.7534 85.5618 20.5025 85.3872C21.2516 85.1951 22.0269 84.9069 22.8283 84.5226V87.5355C22.1314 87.8848 21.391 88.138 20.607 88.2952C19.8405 88.4699 18.9084 88.5572 17.8109 88.5572C16.3823 88.5572 15.1193 88.2952 14.0217 87.7713C12.9242 87.2298 12.0618 86.4177 11.4347 85.3348C10.8075 84.2519 10.4939 82.8896 10.4939 81.2478C10.4939 79.5711 10.7726 78.1825 11.3301 77.0822C11.905 75.9644 12.6977 75.126 13.7081 74.5671C14.7186 74.0082 15.8945 73.7288 17.236 73.7288ZM17.2621 76.5058C16.513 76.5058 15.8858 76.7503 15.3806 77.2394C14.8928 77.7284 14.6054 78.4882 14.5182 79.5187H19.9799C19.9799 78.9423 19.8753 78.4271 19.6663 77.973C19.4746 77.5188 19.1785 77.1608 18.7778 76.8988C18.3771 76.6368 17.8719 76.5058 17.2621 76.5058Z" fill="#F96F22"/>
<path d="M32.597 88.5572C31.1859 88.5572 29.9838 88.304 28.9908 87.7975C27.9977 87.2735 27.2399 86.4701 26.7173 85.3872C26.1946 84.3043 25.9333 82.9158 25.9333 81.2216C25.9333 79.475 26.2295 78.0515 26.8218 76.9512C27.4141 75.8509 28.2329 75.0387 29.2782 74.5147C30.3409 73.9907 31.5604 73.7288 32.9367 73.7288C33.9123 73.7288 34.7572 73.8248 35.4715 74.0169C36.2032 74.2091 36.8391 74.4361 37.3792 74.6981L36.2294 77.711C35.6196 77.4664 35.0447 77.2656 34.5046 77.1084C33.982 76.9512 33.4594 76.8726 32.9367 76.8726C32.2573 76.8726 31.6911 77.0385 31.2381 77.3704C30.7852 77.6848 30.4454 78.1651 30.219 78.8113C30.0099 79.4401 29.9054 80.2348 29.9054 81.1954C29.9054 82.1385 30.0186 82.9245 30.2451 83.5533C30.489 84.1646 30.8374 84.6274 31.2904 84.9418C31.7433 85.2387 32.2921 85.3872 32.9367 85.3872C33.7555 85.3872 34.4785 85.2824 35.1057 85.0728C35.7328 84.8457 36.3426 84.5401 36.9349 84.1558V87.4831C36.3426 87.8673 35.7154 88.138 35.0534 88.2952C34.4088 88.4699 33.59 88.5572 32.597 88.5572Z" fill="#F96F22"/>
<path d="M44.1127 79.6743V93.9788H40.219V79.6743H44.1127ZM42.1789 74.0677C42.7538 74.0677 43.2503 74.2075 43.6684 74.4869C44.0866 74.7489 44.2956 75.2467 44.2956 75.9802C44.2956 76.6963 44.0866 77.1941 43.6684 77.4736C43.2503 77.753 42.7538 77.8927 42.1789 77.8927C41.5866 77.8927 41.0814 77.753 40.6633 77.4736C40.2626 77.1941 40.0622 76.6963 40.0622 75.9802C40.0622 75.2467 40.2626 74.7489 40.6633 74.4869C41.0814 74.2075 41.5866 74.0677 42.1789 74.0677Z" fill="#F96F22"/>
<path d="M56.1253 73.7288C57.7281 73.7288 59.026 74.3575 60.019 75.6151C61.012 76.8551 61.5085 78.689 61.5085 81.1168C61.5085 82.7411 61.2733 84.1122 60.803 85.23C60.3326 86.3303 59.688 87.16 58.8692 87.7189C58.0504 88.2778 57.1009 88.5572 56.0208 88.5572C55.3414 88.5572 54.749 88.4699 54.2438 88.2952C53.756 88.1206 53.3379 87.8935 52.9895 87.6141C52.641 87.3346 52.3362 87.0377 52.0748 86.7233H51.8658C51.9355 87.0552 51.9877 87.4045 52.0226 87.7713C52.0574 88.1206 52.0748 88.4699 52.0748 88.8192V94.5829H48.1811V73.9907H51.3431L51.8919 75.8509H52.0748C52.3362 75.4666 52.6497 75.1173 53.0156 74.8029C53.3814 74.4711 53.817 74.2091 54.3222 74.0169C54.8448 73.8248 55.4459 73.7288 56.1253 73.7288ZM54.871 76.8464C54.1915 76.8464 53.6515 76.9861 53.2508 77.2656C52.8501 77.545 52.5539 77.9729 52.3623 78.5493C52.1881 79.1082 52.0923 79.8156 52.0748 80.6714V81.0906C52.0748 82.0163 52.1619 82.8022 52.3362 83.4485C52.5104 84.0772 52.8065 84.5576 53.2246 84.8894C53.6428 85.2213 54.209 85.3872 54.9232 85.3872C55.5156 85.3872 56.0034 85.2213 56.3866 84.8894C56.7699 84.5576 57.0574 84.0685 57.249 83.4223C57.4406 82.776 57.5365 81.9901 57.5365 81.0644C57.5365 79.6671 57.3187 78.6192 56.8831 77.9206C56.465 77.2045 55.7943 76.8464 54.871 76.8464Z" fill="#F96F22"/>
<path d="M70.5976 73.7288C71.9216 73.7288 73.054 73.982 73.9948 74.4885C74.953 74.995 75.6934 75.7286 76.216 76.6892C76.7387 77.6498 77 78.8288 77 80.226V82.1123H67.8015C67.8363 83.2127 68.1586 84.0772 68.7684 84.706C69.3955 85.3348 70.2579 85.6492 71.3555 85.6492C72.2788 85.6492 73.115 85.5618 73.8641 85.3872C74.6133 85.1951 75.3885 84.9069 76.1899 84.5226V87.5355C75.493 87.8848 74.7526 88.138 73.9687 88.2952C73.2021 88.4699 72.2701 88.5572 71.1725 88.5572C69.744 88.5572 68.4809 88.2952 67.3834 87.7713C66.2858 87.2298 65.4235 86.4177 64.7963 85.3348C64.1691 84.2519 63.8555 82.8896 63.8555 81.2478C63.8555 79.5711 64.1343 78.1825 64.6918 77.0822C65.2667 75.9644 66.0593 75.126 67.0698 74.5671C68.0802 74.0082 69.2562 73.7288 70.5976 73.7288ZM70.6238 76.5058C69.8746 76.5058 69.2475 76.7503 68.7422 77.2394C68.2544 77.7284 67.967 78.4882 67.8799 79.5187H73.3415C73.3415 78.9423 73.237 78.4271 73.0279 77.973C72.8363 77.5188 72.5401 77.1608 72.1394 76.8988C71.7387 76.6368 71.2335 76.5058 70.6238 76.5058Z" fill="#F96F22"/>
<path d="M16.4585 67.375H15.1335V63.3755H10.95V67.375H9.625V58.6153H10.95V62.2468H15.1335V58.6153H16.4585V67.375Z" fill="#061F33"/>
<path d="M24.2618 67.375L23.3294 64.8477H19.9433L19.0109 67.375H17.6369L20.9616 58.5785H22.3357L25.6482 67.375H24.2618ZM22.078 61.2285C22.0535 61.1385 22.0085 61.0036 21.9431 60.8237C21.8858 60.6355 21.8286 60.4474 21.7713 60.2593C21.7141 60.063 21.6691 59.9035 21.6364 59.7808C21.5955 59.9444 21.5464 60.1244 21.4892 60.3207C21.4401 60.5088 21.391 60.6846 21.3419 60.8482C21.2929 61.0036 21.252 61.1304 21.2193 61.2285L20.3359 63.6945H22.9614L22.078 61.2285Z" fill="#061F33"/>
<path d="M34.0189 67.375H32.4117L27.9828 60.2961H27.9337C27.9419 60.4597 27.9501 60.6355 27.9583 60.8237C27.9746 61.0118 27.9869 61.2122 27.9951 61.4248C28.0033 61.6293 28.0114 61.8419 28.0196 62.0628C28.0278 62.2754 28.0319 62.4922 28.0319 62.713V67.375H26.8296V58.6153H28.4245L32.8411 65.6574H32.8779C32.8697 65.5347 32.8616 65.3834 32.8534 65.2035C32.8452 65.0154 32.837 64.815 32.8288 64.6023C32.8288 64.3897 32.8248 64.1729 32.8166 63.9521C32.8084 63.7313 32.8002 63.5227 32.792 63.3264V58.6153H34.0189V67.375Z" fill="#061F33"/>
<path d="M40.0104 62.6639H43.1757V67.0315C42.7094 67.1869 42.231 67.3014 41.7402 67.375C41.2577 67.4568 40.7056 67.4977 40.084 67.4977C39.1925 67.4977 38.4359 67.3178 37.8143 66.9579C37.2009 66.598 36.7306 66.0827 36.4035 65.4121C36.0845 64.7414 35.925 63.9358 35.925 62.9952C35.925 62.0791 36.1049 61.2858 36.4648 60.6151C36.8247 59.9444 37.34 59.4251 38.0106 59.057C38.6895 58.6808 39.5115 58.4927 40.4766 58.4927C40.9592 58.4927 41.4213 58.5417 41.8629 58.6399C42.3046 58.7298 42.7135 58.8566 43.0898 59.0202L42.6113 60.1244C42.3087 59.9853 41.9693 59.8708 41.593 59.7808C41.225 59.6827 40.8365 59.6336 40.4275 59.6336C39.7814 59.6336 39.2211 59.7727 38.7467 60.0507C38.2805 60.3207 37.9207 60.7092 37.6671 61.2162C37.4218 61.7152 37.2991 62.3122 37.2991 63.0074C37.2991 63.6618 37.4013 64.2425 37.6058 64.7496C37.8102 65.2567 38.1333 65.6533 38.575 65.9396C39.0166 66.2259 39.5933 66.369 40.3048 66.369C40.542 66.369 40.7506 66.3608 40.9305 66.3445C41.1105 66.3199 41.274 66.2954 41.4213 66.2708C41.5767 66.2381 41.7239 66.2095 41.8629 66.185V63.8049H40.0104V62.6639Z" fill="#061F33"/>
<path d="M52.1017 67.375H50.7767V63.3755H46.5932V67.375H45.2682V58.6153H46.5932V62.2468H50.7767V58.6153H52.1017V67.375Z" fill="#061F33"/>
<path d="M59.905 67.375L58.9726 64.8477H55.5865L54.6541 67.375H53.2801L56.6048 58.5785H57.9789L61.2913 67.375H59.905ZM57.7212 61.2285C57.6967 61.1385 57.6517 61.0036 57.5863 60.8237C57.529 60.6355 57.4718 60.4474 57.4145 60.2593C57.3573 60.063 57.3123 59.9035 57.2796 59.7808C57.2387 59.9444 57.1896 60.1244 57.1323 60.3207C57.0833 60.5088 57.0342 60.6846 56.9851 60.8482C56.9361 61.0036 56.8952 61.1304 56.8624 61.2285L55.9791 63.6945H58.6046L57.7212 61.2285Z" fill="#061F33"/>
<path d="M67.4047 67.375H62.4728V58.6153H67.4047V59.744H63.7978V62.2468H67.1838V63.3632H63.7978V66.234H67.4047V67.375Z" fill="#061F33"/>
</svg>
